<?xml version="1.0" encoding="utf-8"?>
<!-- Generator: Adobe Illustrator 17.0.0, SVG Export Plug-In . SVG Version: 6.00 Build 0)  -->
<!DOCTYPE svg PUBLIC "-//W3C//DTD SVG 1.1//EN" "http://www.w3.org/Graphics/SVG/1.1/DTD/svg11.dtd">
<svg version="1.1" id="Capa_1" xmlns="http://www.w3.org/2000/svg" xmlns:xlink="http://www.w3.org/1999/xlink" x="0px" y="0px"
	 width="575.576px" height="254.811px" viewBox="0 0 575.576 254.811" enable-background="new 0 0 575.576 254.811"
	 xml:space="preserve">
<g id="XMLID_329_">
	<g id="XMLID_360_">
		<g id="XMLID_370_">
			<g id="XMLID_373_">
				<g id="XMLID_374_">
					<rect id="XMLID_377_" x="0" y="199.191" fill="#FFD300" width="573.818" height="18.549"/>
					<rect id="XMLID_376_" x="0" y="217.729" fill="#1E478D" width="573.818" height="18.548"/>
					<rect id="XMLID_375_" x="0" y="236.257" fill="#DA2128" width="573.818" height="18.55"/>
				</g>
			</g>
			<rect id="XMLID_372_" x="0.047" y="199.19" fill="none" width="573.771" height="55.621"/>
		</g>
		<g id="XMLID_361_">
			<polygon id="XMLID_369_" fill="#FFFFFF" points="197.77,231.221 192.552,235.03 194.561,228.889 189.328,225.103 
				195.787,225.118 197.77,218.972 199.752,225.118 206.212,225.103 200.979,228.889 202.987,235.03 			"/>
			<polygon id="XMLID_368_" fill="#FFFFFF" points="251.581,231.221 246.364,235.03 248.373,228.889 243.138,225.103 
				249.599,225.118 251.581,218.972 253.564,225.118 260.023,225.103 254.79,228.889 256.799,235.03 			"/>
			<polygon id="XMLID_367_" fill="#FFFFFF" points="278.486,231.221 273.27,235.03 275.279,228.889 270.045,225.103 
				276.505,225.118 278.486,218.972 280.47,225.118 286.929,225.103 281.695,228.889 283.706,235.03 			"/>
			<polygon id="XMLID_366_" fill="#FFFFFF" points="224.676,231.221 219.458,235.03 221.467,228.889 216.234,225.103 
				222.692,225.118 224.676,218.972 226.659,225.118 233.118,225.103 227.884,228.889 229.894,235.03 			"/>
			<polygon id="XMLID_365_" fill="#FFFFFF" points="305.393,231.221 300.175,235.03 302.185,228.889 296.951,225.103 
				303.411,225.118 305.393,218.972 307.375,225.118 313.835,225.103 308.601,228.889 310.611,235.03 			"/>
			<polygon id="XMLID_364_" fill="#FFFFFF" points="332.297,231.221 327.08,235.03 329.09,228.889 323.856,225.103 330.315,225.118 
				332.297,218.972 334.28,225.118 340.74,225.103 335.507,228.889 337.515,235.03 			"/>
			<polygon id="XMLID_363_" fill="#FFFFFF" points="359.204,231.221 353.986,235.03 355.996,228.889 350.762,225.103 
				357.221,225.118 359.204,218.972 361.186,225.118 367.645,225.103 362.414,228.889 364.421,235.03 			"/>
			<polygon id="XMLID_362_" fill="#FFFFFF" points="386.11,231.221 380.893,235.03 382.902,228.889 377.667,225.103 
				384.127,225.118 386.11,218.972 388.093,225.118 394.552,225.103 389.318,228.889 391.328,235.03 			"/>
		</g>
	</g>
	<g id="XMLID_330_">
		<linearGradient id="XMLID_2_" gradientUnits="userSpaceOnUse" x1="11.7317" y1="-11.3448" x2="11.7317" y2="205.3052">
			<stop  offset="0" style="stop-color:#0B6DB3"/>
			<stop  offset="1" style="stop-color:#151F47"/>
		</linearGradient>
		<rect id="XMLID_359_" x="0.297" y="1.62" fill="url(#XMLID_2_)" width="22.87" height="17.594"/>
		<linearGradient id="XMLID_3_" gradientUnits="userSpaceOnUse" x1="12.6114" y1="-10.5423" x2="12.6114" y2="199.7899">
			<stop  offset="0" style="stop-color:#0B6DB3"/>
			<stop  offset="1" style="stop-color:#151F47"/>
		</linearGradient>
		<polygon id="XMLID_358_" fill="url(#XMLID_3_)" points="24.926,53.479 17.489,22.732 6.699,22.732 0.297,53.479 0.297,68.472 
			24.926,68.472 		"/>
		<linearGradient id="XMLID_4_" gradientUnits="userSpaceOnUse" x1="61.8706" y1="-11.0471" x2="61.8706" y2="200.6284">
			<stop  offset="0" style="stop-color:#0B6DB3"/>
			<stop  offset="1" style="stop-color:#151F47"/>
		</linearGradient>
		<polygon id="XMLID_357_" fill="url(#XMLID_4_)" points="90.019,49.12 54.833,49.12 54.833,42.083 86.5,42.083 86.5,26.25 
			54.833,26.25 54.833,19.214 90.019,19.214 90.019,1.62 33.722,1.62 33.722,68.472 90.019,68.472 		"/>
		<linearGradient id="XMLID_5_" gradientUnits="userSpaceOnUse" x1="125.2043" y1="-11.0471" x2="125.2043" y2="200.6284">
			<stop  offset="0" style="stop-color:#0B6DB3"/>
			<stop  offset="1" style="stop-color:#151F47"/>
		</linearGradient>
		<polygon id="XMLID_356_" fill="url(#XMLID_5_)" points="151.593,49.12 119.927,49.12 119.927,1.62 98.816,1.62 98.816,68.472 
			151.593,68.472 		"/>
		<linearGradient id="XMLID_6_" gradientUnits="userSpaceOnUse" x1="272.1028" y1="-10.8974" x2="272.1028" y2="198.2756">
			<stop  offset="0" style="stop-color:#0B6DB3"/>
			<stop  offset="1" style="stop-color:#151F47"/>
		</linearGradient>
		<path id="XMLID_355_" fill="url(#XMLID_6_)" d="M271.913,69.002c19.783,0,32.736-8.897,32.736-31.52V1.62h-22.87v36.525
			c0,8.045-4.592,11.263-10.556,11.263c-5.963,0-10.556-3.502-10.556-11.737V1.62h-21.111v36.337
			C239.557,59.916,252.13,69.002,271.913,69.002z"/>
		<linearGradient id="XMLID_7_" gradientUnits="userSpaceOnUse" x1="341.5935" y1="-11.0471" x2="341.5935" y2="200.6284">
			<stop  offset="0" style="stop-color:#0B6DB3"/>
			<stop  offset="1" style="stop-color:#151F47"/>
		</linearGradient>
		<polygon id="XMLID_354_" fill="url(#XMLID_7_)" points="369.742,49.12 334.557,49.12 334.557,42.083 367.983,42.083 
			367.983,26.25 334.557,26.25 334.557,19.214 369.742,19.214 369.742,1.62 313.445,1.62 313.445,68.472 369.742,68.472 		"/>
		<linearGradient id="XMLID_8_" gradientUnits="userSpaceOnUse" x1="475.2981" y1="-11.0471" x2="475.2981" y2="200.6284">
			<stop  offset="0" style="stop-color:#0B6DB3"/>
			<stop  offset="1" style="stop-color:#151F47"/>
		</linearGradient>
		<polygon id="XMLID_353_" fill="url(#XMLID_8_)" points="501.687,49.12 470.02,49.12 470.02,1.62 448.909,1.62 448.909,68.472 
			501.687,68.472 		"/>
		<linearGradient id="XMLID_9_" gradientUnits="userSpaceOnUse" x1="145.4358" y1="-11.2196" x2="145.4358" y2="199.3208">
			<stop  offset="0" style="stop-color:#0B6DB3"/>
			<stop  offset="1" style="stop-color:#151F47"/>
		</linearGradient>
		<polygon id="XMLID_352_" fill="url(#XMLID_9_)" points="135.76,145.881 183.261,145.881 183.261,121.25 135.76,121.25 
			135.76,112.453 186.778,112.453 186.778,86.065 104.093,86.065 104.093,182.825 186.778,182.825 186.778,156.437 135.76,156.437 
					"/>
		<linearGradient id="XMLID_10_" gradientUnits="userSpaceOnUse" x1="241.7573" y1="-11.1341" x2="241.7573" y2="198.658">
			<stop  offset="0" style="stop-color:#0B6DB3"/>
			<stop  offset="1" style="stop-color:#151F47"/>
		</linearGradient>
		<path id="XMLID_351_" fill="url(#XMLID_10_)" d="M245.159,155.364c-10.605,0-17.917-8.814-17.917-21.349v-0.275
			c0-11.572,7.037-21.076,17.917-21.076c8.816,0,13.848,4.821,17.43,11.709l26.551-15.564
			c-8.126-14.739-22.662-25.069-43.875-25.069c-28.787,0-51.449,21.489-51.449,50.276v0.274c0,29.889,23.472,49.999,50.194,49.999
			c23.965,0,37.562-11.708,45.688-26.033l-26.471-15.012C259.234,150.406,254.249,155.364,245.159,155.364z"/>
		<linearGradient id="XMLID_11_" gradientUnits="userSpaceOnUse" x1="313.446" y1="-11.2196" x2="313.446" y2="199.3208">
			<stop  offset="0" style="stop-color:#0B6DB3"/>
			<stop  offset="1" style="stop-color:#151F47"/>
		</linearGradient>
		<rect id="XMLID_350_" x="297.612" y="86.065" fill="url(#XMLID_11_)" width="31.667" height="96.76"/>
		<linearGradient id="XMLID_12_" gradientUnits="userSpaceOnUse" x1="488.4927" y1="-11.2196" x2="488.4927" y2="199.3208">
			<stop  offset="0" style="stop-color:#0B6DB3"/>
			<stop  offset="1" style="stop-color:#151F47"/>
		</linearGradient>
		<polygon id="XMLID_349_" fill="url(#XMLID_12_)" points="478.817,145.881 526.317,145.881 526.317,121.25 478.817,121.25 
			478.817,112.453 529.836,112.453 529.836,86.065 447.15,86.065 447.15,182.825 529.836,182.825 529.836,156.437 478.817,156.437 
					"/>
		<linearGradient id="XMLID_13_" gradientUnits="userSpaceOnUse" x1="557.9841" y1="-9.2517" x2="557.9841" y2="199.1527">
			<stop  offset="0" style="stop-color:#0B6DB3"/>
			<stop  offset="1" style="stop-color:#151F47"/>
		</linearGradient>
		<rect id="XMLID_348_" x="542.15" y="158.196" fill="url(#XMLID_13_)" width="31.667" height="24.629"/>
		<linearGradient id="XMLID_14_" gradientUnits="userSpaceOnUse" x1="557.9834" y1="-11.5477" x2="557.9834" y2="199.7015">
			<stop  offset="0" style="stop-color:#0B6DB3"/>
			<stop  offset="1" style="stop-color:#151F47"/>
		</linearGradient>
		<polygon id="XMLID_347_" fill="url(#XMLID_14_)" points="540.391,106.467 550.04,152.917 565.743,152.917 575.576,106.467 
			575.576,86.065 540.391,86.065 		"/>
		<linearGradient id="XMLID_15_" gradientUnits="userSpaceOnUse" x1="539.5112" y1="-11.1346" x2="539.5112" y2="198.6587">
			<stop  offset="0" style="stop-color:#0B6DB3"/>
			<stop  offset="1" style="stop-color:#151F47"/>
		</linearGradient>
		<path id="XMLID_344_" fill="url(#XMLID_15_)" d="M539.606,0c-20.445,0-36.16,15.333-36.16,34.548v0.189
			c0,19.215,15.526,34.358,35.97,34.358c20.445,0,36.16-15.332,36.16-34.548v-0.189C575.576,15.146,560.05,0,539.606,0z
			 M554.465,34.738c0,7.761-5.557,14.766-13.979,14.766c-8.518,0-14.169-7.099-14.169-14.955v-0.189
			c0-7.762,5.557-14.766,13.979-14.766c8.518,0,14.169,7.1,14.169,14.955V34.738z"/>
		<linearGradient id="XMLID_16_" gradientUnits="userSpaceOnUse" x1="204.3713" y1="-11.0471" x2="204.3713" y2="200.6284">
			<stop  offset="0" style="stop-color:#0B6DB3"/>
			<stop  offset="1" style="stop-color:#151F47"/>
		</linearGradient>
		<path id="XMLID_341_" fill="url(#XMLID_16_)" d="M204.646,1.62h-30.183v66.852h22.87V49.12h6.839
			c17.889,0,30.106-7.945,30.106-23.943v-0.188C234.279,9.277,222.25,1.62,204.646,1.62z M213.167,26.597
			c0,4.733-4.546,6.691-10.226,6.691h-5.608V19.214h5.703c5.869,0,10.131,2.366,10.131,7.194V26.597z"/>
		<linearGradient id="XMLID_17_" gradientUnits="userSpaceOnUse" x1="410.2048" y1="-11.0471" x2="410.2048" y2="200.6284">
			<stop  offset="0" style="stop-color:#0B6DB3"/>
			<stop  offset="1" style="stop-color:#151F47"/>
		</linearGradient>
		<path id="XMLID_337_" fill="url(#XMLID_17_)" d="M427.193,33.034c7.097-2.462,11.16-7.289,11.16-15.144v-0.189
			c0-4.543-1.33-7.851-3.698-10.216c-3.88-3.88-9.281-5.864-18.463-5.864h-37.654v66.852h37.276
			c16.754,0,26.057-8.556,26.057-19.156v-0.19C441.872,40.038,435.711,35.495,427.193,33.034z M401.41,17.454h8.821
			c4.731,0,7.011,2.331,7.011,5.263v0.189c0,2.934-2.185,5.104-6.917,5.104h-8.916V17.454z M419.002,46.095
			c0,2.842-2.43,4.785-7.257,4.785H401.41V40.325h10.429c4.829,0,7.164,2.744,7.164,5.582V46.095z"/>
		<linearGradient id="XMLID_18_" gradientUnits="userSpaceOnUse" x1="389.9736" y1="-11.2196" x2="389.9736" y2="199.3208">
			<stop  offset="0" style="stop-color:#0B6DB3"/>
			<stop  offset="1" style="stop-color:#151F47"/>
		</linearGradient>
		<path id="XMLID_334_" fill="url(#XMLID_18_)" d="M379.807,86.065h-36.454v96.76h35.351c38.979,0,57.889-20.851,57.889-49.362
			v-0.275C436.594,104.675,418.097,86.065,379.807,86.065z M404.927,134.153c0,13.911-9.694,20.524-24.432,20.524h-5.475v-40.463
			h5.475c14.738,0,24.432,5.751,24.432,19.663V134.153z"/>
		<linearGradient id="XMLID_19_" gradientUnits="userSpaceOnUse" x1="47.7969" y1="-11.2196" x2="47.7969" y2="199.3208">
			<stop  offset="0" style="stop-color:#0B6DB3"/>
			<stop  offset="1" style="stop-color:#151F47"/>
		</linearGradient>
		<path id="XMLID_331_" fill="url(#XMLID_19_)" d="M37.101,86.065H0.297v96.76h35.702c38.979,0,59.298-20.851,59.298-49.362v-0.275
			C95.297,104.675,75.391,86.065,37.101,86.065z M61.871,134.153c0,13.911-9.344,20.524-24.081,20.524h-5.827v-40.463h5.827
			c14.737,0,24.081,5.751,24.081,19.663V134.153z"/>
	</g>
</g>
</svg>
